<svg xmlns="http://www.w3.org/2000/svg" version="1.1" xmlns:xlink="http://www.w3.org/1999/xlink" xmlns:svgjs="http://svgjs.dev/svgjs" width="1500" height="1500" viewBox="0 0 1500 1500"><rect width="1500" height="1500" fill="#61777f"></rect><g transform="matrix(0.6666666666666666,0,0,0.6666666666666666,250.59970012567715,361.98110661268555)"><svg viewBox="0 0 318 247" data-background-color="#61777f" preserveAspectRatio="xMidYMid meet" height="1165" width="1500" xmlns="http://www.w3.org/2000/svg" xmlns:xlink="http://www.w3.org/1999/xlink"><g id="tight-bounds" transform="matrix(1,0,0,1,-0.1907046399653325,-0.09999999999999432)"><svg viewBox="0 0 318.38140927993066 247.2" height="247.2" width="318.38140927993066"><g><svg viewBox="0 0 397.4975999999999 308.6279658797714" height="247.2" width="318.38140927993066"><g><rect width="397.4975999999999" height="6.666811428221966" x="0" y="172.39441814601986" fill="#000000" opacity="1" stroke-width="0" stroke="transparent" fill-opacity="1" class="rect-qz-0" data-fill-palette-color="primary" rx="1%" id="qz-0" data-palette-color="#000000"></rect></g><g transform="matrix(1,0,0,1,0.9887999999999693,196.51361551199565)"><svg viewBox="0 0 395.52 112.1143503677757" height="112.1143503677757" width="395.52"><g id="textblocktransform"><svg viewBox="0 0 395.52 112.1143503677757" height="112.1143503677757" width="395.52" id="textblock"><g><svg viewBox="0 0 395.52 73.92698087799623" height="73.92698087799623" width="395.52"><g transform="matrix(1,0,0,1,0,0)"><svg width="395.52" viewBox="0.7 -33.3 185.64000000000001 34.699999999999996" height="73.92698087799623" data-palette-color="#000000"><path d="M28.45-8.7Q27.7-6.45 25.48-4.17 23.25-1.9 19.88-0.43 16.5 1.05 12.5 1.05L12.5 1.05Q6.4 1.05 3.55-1.93 0.7-4.9 0.7-9.55L0.7-9.55Q0.7-16.15 3.65-21.53 6.6-26.9 11.6-29.98 16.6-33.05 22.4-33.05L22.4-33.05Q24.7-33.05 26.6-32 28.5-30.95 29.6-28.98 30.7-27 30.7-24.35L30.7-24.35Q30.7-22.85 29.58-21.8 28.45-20.75 26.55-20.75L26.55-20.75Q25.05-20.75 24.53-21.55 24-22.35 24-23.6L24-23.6 24.05-25.2Q24.05-26.1 23.05-26.95 22.05-27.8 21.2-27.8L21.2-27.8Q18.4-27.8 15.05-25.28 11.7-22.75 9.4-18.48 7.1-14.2 7.1-9.2L7.1-9.2Q7.1-6.9 8.9-5.45 10.7-4 13.45-4L13.45-4Q14.35-4 15.8-4.6 17.25-5.2 18.48-6.1 19.7-7 20.1-7.85L20.1-7.85Q20.7-9.1 21.8-10.65 22.9-12.2 24-12.2L24-12.2Q26.55-12.2 27.48-11.1 28.4-10 28.45-8.7L28.45-8.7ZM55.55-26.35Q55.3-27.15 53.62-27.78 51.95-28.4 49.25-28.4L49.25-28.4Q46.3-28.4 44.65-26.75 43-25.1 43-22.6L43-22.6Q43-21.05 44.12-20.23 45.25-19.4 47.6-18.4L47.6-18.4 49.4-17.65 50.9-16.95Q53.6-15.75 55.17-14.78 56.75-13.8 57.85-12.1 58.95-10.4 58.95-7.75L58.95-7.75Q58.95-4.9 57.07-2.83 55.2-0.75 51.85 0.33 48.5 1.4 44.05 1.4L44.05 1.4Q40.75 1.4 37.87 0.38 35-0.65 33.32-2.2 31.65-3.75 31.65-5.25L31.65-5.25Q31.65-6.7 32.9-7.63 34.15-8.55 36.45-8.9L36.45-8.9Q36.7-7.45 38.15-6.3 39.6-5.15 41.52-4.48 43.45-3.8 44.9-3.8L44.9-3.8Q47.55-3.8 49.62-4.85 51.7-5.9 51.7-7.75L51.7-7.75Q51.7-9.3 50.22-10.33 48.75-11.35 45.8-12.55L45.8-12.55 43.15-13.75Q39.9-15.35 38-17.35 36.1-19.35 36.1-22.65L36.1-22.65Q36.1-26.3 38.15-28.58 40.2-30.85 43.12-31.85 46.05-32.85 48.85-32.85L48.85-32.85Q53.3-32.85 56.17-31.7 59.05-30.55 60.35-28.8 61.65-27.05 61.65-25.2L61.65-25.2Q61.65-24.15 61.12-22.65 60.6-21.15 59.57-20.05 58.55-18.95 57.1-18.95L57.1-18.95Q54.6-18.95 54.6-21.55L54.6-21.55Q54.7-22.35 55.05-24.18 55.4-26 55.55-26.35L55.55-26.35ZM91.05-8.7Q90.3-6.45 88.07-4.17 85.84-1.9 82.47-0.43 79.09 1.05 75.09 1.05L75.09 1.05Q69 1.05 66.15-1.93 63.3-4.9 63.3-9.55L63.3-9.55Q63.3-16.15 66.25-21.53 69.2-26.9 74.2-29.98 79.2-33.05 85-33.05L85-33.05Q87.3-33.05 89.2-32 91.09-30.95 92.2-28.98 93.3-27 93.3-24.35L93.3-24.35Q93.3-22.85 92.17-21.8 91.05-20.75 89.15-20.75L89.15-20.75Q87.65-20.75 87.12-21.55 86.59-22.35 86.59-23.6L86.59-23.6 86.65-25.2Q86.65-26.1 85.65-26.95 84.65-27.8 83.8-27.8L83.8-27.8Q81-27.8 77.65-25.28 74.3-22.75 72-18.48 69.7-14.2 69.7-9.2L69.7-9.2Q69.7-6.9 71.5-5.45 73.3-4 76.05-4L76.05-4Q76.95-4 78.4-4.6 79.84-5.2 81.07-6.1 82.3-7 82.7-7.85L82.7-7.85Q83.3-9.1 84.4-10.65 85.5-12.2 86.59-12.2L86.59-12.2Q89.15-12.2 90.07-11.1 91-10 91.05-8.7L91.05-8.7ZM113.54-1.7Q113.54-2.25 113.69-2.75L113.69-2.75 119.39-24.85Q117.94-23.75 116.12-22.73 114.29-21.7 113.74-21.7L113.74-21.7Q113.04-21.7 112.17-22.15 111.29-22.6 110.67-23.2 110.04-23.8 110.04-24.2L110.04-24.2Q110.04-24.35 110.09-24.4L110.09-24.4Q110.59-25.05 112.72-26.58 114.84-28.1 118.24-30.35L118.24-30.35Q121.54-32.55 122.14-33L122.14-33Q122.59-33.3 123.14-33.3L123.14-33.3Q124.29-33.3 125.32-32.35 126.34-31.4 126.34-30.15L126.34-30.15Q126.34-30.1 126.42-29.88 126.49-29.65 126.49-29.3L126.49-29.3Q126.49-29.2 126.39-28.6L126.39-28.6Q125.64-24.45 123.72-16.78 121.79-9.1 121.54-8L121.54-8Q120.44-3.8 120.29-3.05L120.29-3.05Q119.89-1.3 119.07-0.35 118.24 0.6 116.39 0.6L116.39 0.6Q114.89 0.6 114.22 0.1 113.54-0.4 113.54-1.7L113.54-1.7ZM150.29-27.15Q145.64-26.9 141.19-26.45 136.74-26 133.59-25.05L133.59-25.05Q132.89-25.6 132.46-26.8 132.04-28 132.04-28.85L132.04-28.85Q132.04-30.25 133.94-31.15L133.94-31.15Q138.34-31.75 144.31-32.3 150.29-32.85 152.79-32.85L152.79-32.85 155.09-32.85Q156.79-32.85 158.01-32.27 159.24-31.7 159.24-30.45L159.24-30.45Q159.24-29.2 158.09-27.8L158.09-27.8Q157.99-27.5 156.79-26.1L156.79-26.1Q152.94-21.6 147.79-14.65L147.79-14.65Q145.99-12.25 144.71-10.25 143.44-8.25 141.59-5.2L141.59-5.2Q139.54-1.75 138.41-0.38 137.29 1 135.99 1L135.99 1Q134.49 1 133.74 0.4 132.99-0.2 132.99-1.2L132.99-1.2Q132.99-2.7 135.94-7.48 138.89-12.25 143.01-17.9 147.14-23.55 150.29-27.15L150.29-27.15ZM169.59 1.05Q166.19 1.05 163.74-0.6 161.29-2.25 160.04-5.03 158.79-7.8 158.79-11.15L158.79-11.15Q158.79-12.95 159.14-14.65L159.14-14.65Q160.69-22.9 164.94-27.85 169.19-32.8 176.74-32.8L176.74-32.8Q181.44-32.8 183.89-29.83 186.34-26.85 186.34-21.1L186.34-21.1Q186.34-15.85 184.54-10.78 182.74-5.7 178.96-2.33 175.19 1.05 169.59 1.05L169.59 1.05ZM169.44-3.7Q172.44-3.7 174.86-6.45 177.29-9.2 178.61-13.4 179.94-17.6 179.94-21.75L179.94-21.75Q179.94-27.4 175.24-27.4L175.24-27.4Q172.49-27.4 170.14-24.73 167.79-22.05 166.41-18.13 165.04-14.2 165.04-10.8L165.04-10.8Q165.04-7.25 166.16-5.48 167.29-3.7 169.44-3.7L169.44-3.7Z" opacity="1" transform="matrix(1,0,0,1,0,0)" fill="#000000" class="wordmark-text-0" data-fill-palette-color="primary" id="text-0"></path></svg></g></svg></g><g transform="matrix(1,0,0,1,75.54431999999998,91.37936681575007)"><svg viewBox="0 0 244.43136 20.73498355202563" height="20.73498355202563" width="244.43136"><g transform="matrix(1,0,0,1,0,0)"><svg width="244.43136" viewBox="3.1 -43.6 749.06 63.55" height="20.73498355202563" data-palette-color="#d2d6dc"><path d="M12.15 0.5Q7.8 0.5 5.45-2.68 3.1-5.85 3.1-12.15L3.1-12.15Q3.1-19.25 5.88-24.48 8.65-29.7 12.83-32.45 17-35.2 21-35.2L21-35.2Q23.6-35.2 25.58-34.18 27.55-33.15 27.55-31.1L27.55-31.1Q27.55-29.65 26.4-27.9L26.4-27.9Q26.1-27.5 25.9-27.33 25.7-27.15 25.4-27.15L25.4-27.15Q25.05-27.15 24.9-27.48 24.75-27.8 24.7-28.25 24.65-28.7 24.6-28.9L24.6-28.9Q24.3-30.6 23.03-31.58 21.75-32.55 19.45-32.55L19.45-32.55Q15.4-32.55 12.68-29.48 9.95-26.4 8.63-21.9 7.3-17.4 7.3-13.15L7.3-13.15Q7.3-8.3 9.1-5.65 10.9-3 14.2-3L14.2-3Q16.9-3 19.28-4.75 21.65-6.5 23.25-9.75L23.25-9.75Q23.55-10.3 23.85-10.3L23.85-10.3Q24.1-10.3 24.1-9.75L24.1-9.75Q24.1-9.45 24.05-9.15 24-8.85 23.95-8.7L23.95-8.7Q23.2-6.05 21.45-3.95 19.7-1.85 17.25-0.68 14.8 0.5 12.15 0.5L12.15 0.5ZM35.35 0.5Q33.1 0.5 31.5-0.43 29.9-1.35 29.07-2.65 28.25-3.95 28.15-5.1L28.15-5.1Q28.15-6.1 28.7-7.15 29.25-8.2 30-8.9 30.75-9.6 31.15-9.6L31.15-9.6Q31.4-9.6 31.4-9.3L31.4-9.3Q31.65-6.55 32.9-4.28 34.15-2 37.4-2L37.4-2Q40-2 41.55-3.6 43.1-5.2 43.1-8.05L43.1-8.05Q43.1-9.75 42.45-11.2 41.8-12.65 40.3-14.45L40.3-14.45 35.4-20.25Q34.6-21.3 34.15-22.43 33.7-23.55 33.7-25.15L33.7-25.15Q33.7-27.75 34.9-30.05 36.1-32.35 38.4-33.77 40.7-35.2 43.75-35.2L43.75-35.2Q46.25-35.2 47.85-34.18 49.45-33.15 49.45-31.25L49.45-31.25Q49.45-29.8 48.25-27.9L48.25-27.9Q47.8-27.15 47.25-27.15L47.25-27.15Q46.85-27.15 46.72-27.53 46.6-27.9 46.5-28.9L46.5-28.9Q46.35-32.9 42.2-32.9L42.2-32.9Q39.7-32.9 38.3-31.63 36.9-30.35 36.9-28.15L36.9-28.15Q36.9-25.95 38.75-23.7L38.75-23.7 43.55-18.15Q46.65-14.5 46.65-10.5L46.65-10.5Q46.65-7.6 45.02-5.08 43.4-2.55 40.77-1.03 38.15 0.5 35.35 0.5L35.35 0.5ZM61.45 0.5Q57.1 0.5 54.75-2.68 52.4-5.85 52.4-12.15L52.4-12.15Q52.4-19.25 55.17-24.48 57.95-29.7 62.12-32.45 66.3-35.2 70.3-35.2L70.3-35.2Q72.9-35.2 74.87-34.18 76.85-33.15 76.85-31.1L76.85-31.1Q76.85-29.65 75.7-27.9L75.7-27.9Q75.4-27.5 75.2-27.33 75-27.15 74.7-27.15L74.7-27.15Q74.35-27.15 74.2-27.48 74.05-27.8 74-28.25 73.95-28.7 73.9-28.9L73.9-28.9Q73.6-30.6 72.32-31.58 71.05-32.55 68.75-32.55L68.75-32.55Q64.7-32.55 61.97-29.48 59.25-26.4 57.92-21.9 56.6-17.4 56.6-13.15L56.6-13.15Q56.6-8.3 58.4-5.65 60.2-3 63.5-3L63.5-3Q66.2-3 68.57-4.75 70.95-6.5 72.55-9.75L72.55-9.75Q72.85-10.3 73.15-10.3L73.15-10.3Q73.4-10.3 73.4-9.75L73.4-9.75Q73.4-9.45 73.35-9.15 73.3-8.85 73.25-8.7L73.25-8.7Q72.5-6.05 70.75-3.95 69-1.85 66.55-0.68 64.1 0.5 61.45 0.5L61.45 0.5ZM93.99 0Q93.84 0 93.79-0.1 93.74-0.2 93.74-0.35L93.74-0.35Q93.74-1 94.29-1.88 94.84-2.75 95.69-3.05L95.69-3.05Q97.59-3.45 97.94-3.65L97.94-3.65Q98.64-3.95 98.89-4.8 99.14-5.65 99.49-8.1L99.49-8.1 102.94-29.9 100.69-28.4Q98.64-27 97.72-26.45 96.79-25.9 96.29-25.9L96.29-25.9Q95.94-25.9 95.74-26.18 95.54-26.45 95.34-26.95L95.34-26.95Q95.29-27.15 95.29-27.45L95.29-27.45Q95.29-27.85 95.49-27.9L95.49-27.9Q97.84-29.25 99.67-30.45 101.49-31.65 105.04-34.3L105.04-34.3Q105.19-34.4 105.59-34.7 105.99-35 106.39-35.1 106.79-35.2 107.39-35.2L107.39-35.2 102.84-5.65Q102.64-4.45 101.94-3.65L101.94-3.65 101.94-3.6Q102.29-3.55 103.27-3.35 104.24-3.15 104.89-3.15L104.89-3.15Q105.54-3.15 106.17-3.48 106.79-3.8 106.89-3.8L106.89-3.8Q107.14-3.8 107.14-3.4L107.14-3.4Q107.14-3.1 106.44-2.3L106.44-2.3Q105.39-1.1 104.59-0.55 103.79 0 102.99 0L102.99 0Q102.64 0 101.24-0.3L101.24-0.3Q99.44-0.8 98.19-0.8L98.19-0.8Q96.94-0.8 95.54-0.4 94.14 0 93.99 0L93.99 0ZM116.09 0.5Q115.79 0.5 115.69 0.33 115.59 0.15 115.59-0.35L115.59-0.35Q115.59-4.05 117.41-9.22 119.24-14.4 122.19-19.8L122.19-19.8Q123.79-22.7 125.69-25.73 127.59-28.75 129.24-30.75L129.24-30.75 128.89-30.75Q126.79-30.75 124.34-31.2L124.34-31.2Q123.89-31.25 122.76-31.4 121.64-31.55 120.69-31.55L120.69-31.55Q118.74-31.55 117.41-31.08 116.09-30.6 115.14-30.05 114.19-29.5 114.04-29.5L114.04-29.5Q113.79-29.5 113.79-30L113.79-30Q113.79-31 114.71-32.1 115.64-33.2 117.41-33.95 119.19-34.7 121.49-34.7L121.49-34.7Q123.09-34.7 125.14-34.25L125.14-34.25Q127.64-33.75 129.49-33.75L129.49-33.75Q131.94-33.75 133.41-34.23 134.89-34.7 135.09-34.7L135.09-34.7Q135.44-34.7 135.44-34.35L135.44-34.35Q135.44-33.95 135.14-33.55 134.84-33.15 134.19-32.55L134.19-32.55Q131.29-29.85 128.91-26.58 126.54-23.3 124.49-18.7L124.49-18.7Q122.59-14.55 121.74-11.05 120.89-7.55 120.09-1.85L120.09-1.85Q119.99-1.05 119.19-0.53 118.39 0 117.49 0.25 116.59 0.5 116.09 0.5L116.09 0.5ZM143.14 0.5Q139.24 0.5 137.09-2.68 134.94-5.85 134.94-11.45L134.94-11.45Q134.94-16.7 136.69-22.25 138.44-27.8 141.71-31.5 144.99-35.2 149.29-35.2L149.29-35.2Q153.19-35.2 155.31-31.88 157.44-28.55 157.44-22.3L157.44-22.3Q157.44-16.45 155.54-11.18 153.64-5.9 150.36-2.7 147.09 0.5 143.14 0.5L143.14 0.5ZM144.84-2.3Q147.19-2.3 149.09-4.53 150.99-6.75 152.09-10.75 153.19-14.75 153.19-19.95L153.19-19.95Q153.19-25.75 151.79-29.1 150.39-32.45 147.64-32.45L147.64-32.45Q145.34-32.45 143.39-30.03 141.44-27.6 140.29-23.38 139.14-19.15 139.14-14L139.14-14Q139.14-8.2 140.66-5.25 142.19-2.3 144.84-2.3L144.84-2.3ZM175.58-11.05Q175.23-11.05 175.23-11.35L175.23-11.35Q175.23-11.75 175.81-12.38 176.38-13 177.33-13.48 178.28-13.95 179.28-13.95L179.28-13.95 188.58-13.95Q189.43-13.95 189.98-14 190.53-14.05 190.83-14.05L190.83-14.05Q191.23-14.05 191.23-13.75L191.23-13.75Q191.23-13.35 190.63-12.73 190.03-12.1 189.08-11.63 188.13-11.15 187.13-11.15L187.13-11.15 177.83-11.15Q176.98-11.15 176.46-11.1 175.93-11.05 175.58-11.05L175.58-11.05ZM215.68 0.5Q215.58 0.5 215.5 0.38 215.43 0.25 215.48 0L215.48 0Q216.18-6.2 216.53-10.83 216.88-15.45 216.88-20.75L216.88-20.75Q216.88-24.6 216.65-26.78 216.43-28.95 215.88-29.95 215.33-30.95 214.33-30.95L214.33-30.95Q212.23-30.95 210.73-26.9L210.73-26.9Q210.53-26.3 210.4-26.1 210.28-25.9 209.98-25.9L209.98-25.9Q209.63-25.9 209.63-26.8L209.63-26.8Q209.63-28.75 210.55-30.7 211.48-32.65 212.98-33.93 214.48-35.2 216.08-35.2L216.08-35.2Q218.73-35.2 219.65-31.55 220.58-27.9 220.58-21.6L220.58-21.6Q220.58-17.6 220.13-10.8L220.13-10.8 220.23-10.8 224.53-20.05Q228.53-28.45 229.13-29.9L229.13-29.9Q229.58-30.8 230.48-31.68 231.38-32.55 232.1-32.93 232.83-33.3 232.73-32.8L232.73-32.8Q232.53-31.75 232.5-31.03 232.48-30.3 232.48-29.2L232.48-29.2Q232.48-26.5 232.6-22.95 232.73-19.4 232.88-17.25L232.88-17.25Q232.88-17.1 233.08-14.2L233.08-14.2Q233.38-10.45 233.53-7.85L233.53-7.85 233.63-7.85Q235.63-12.45 235.88-13.1L235.88-13.1 238.18-18.3 238.88-19.85Q240.08-22.65 240.65-24.33 241.23-26 241.23-27.65L241.23-27.65Q241.23-29 240.88-29.68 240.53-30.35 239.93-30.95L239.93-30.95Q239.78-31.05 240.48-32.15 241.18-33.25 242.05-34.23 242.93-35.2 243.48-35.2L243.48-35.2Q244.13-35.2 244.7-34.08 245.28-32.95 245.28-31.55L245.28-31.55Q245.28-30.4 244.78-28.88 244.28-27.35 243.28-25L243.28-25 234.03-4.2Q233.68-3.45 232.95-2.15 232.23-0.85 231.83-0.35L231.83-0.35Q231.53 0.05 231.13 0.28 230.73 0.5 230.58 0.5L230.58 0.5Q230.38 0.5 230.35 0.08 230.33-0.35 230.33-0.78 230.33-1.2 230.33-1.45L230.33-1.45Q230.33-4 230.03-8.68 229.73-13.35 229.63-15L229.63-15Q229.08-21.9 229.03-24.75L229.03-24.75 228.98-24.75Q227.18-21.15 223.75-13.7 220.33-6.25 219.48-4.1L219.48-4.1Q219.38-3.9 218.68-2.55 217.98-1.2 217.13-0.3L217.13-0.3Q216.73 0.1 216.3 0.3 215.88 0.5 215.68 0.5L215.68 0.5ZM249.02 0.5Q246.77 0.5 245.45-1.23 244.12-2.95 244.12-6L244.12-6Q244.12-9.7 245.9-13.93 247.67-18.15 250.47-20.98 253.27-23.8 256.12-23.8L256.12-23.8Q258.72-23.8 258.72-20.65L258.72-20.65Q258.72-18.1 257.22-15.65 255.72-13.2 253.2-11.33 250.67-9.45 247.67-8.45L247.67-8.45Q247.67-5.75 248.55-4.55 249.42-3.35 251.12-3.35L251.12-3.35Q252.92-3.35 254.42-4.5 255.92-5.65 256.97-7.65L256.97-7.65Q257.12-7.95 257.27-8.15 257.42-8.35 257.67-8.35L257.67-8.35Q258.07-8.35 258.07-7.75L258.07-7.75Q258.07-6.4 256.72-4.4 255.37-2.4 253.27-0.95 251.17 0.5 249.02 0.5L249.02 0.5ZM249.27-11.1Q250.57-11.1 252.05-12.03 253.52-12.95 254.52-14.55 255.52-16.15 255.52-18.15L255.52-18.15Q255.52-20.5 253.87-20.5L253.87-20.5Q252.52-20.5 251.3-19.05 250.07-17.6 249.25-15.45 248.42-13.3 248.12-11.3L248.12-11.3Q248.42-11.1 249.27-11.1L249.27-11.1ZM266.17 0.5Q265.37 0.5 264.27 0.3L264.27 0.3Q263.37 0.1 262.82 0.1L262.82 0.1Q262.42 0.1 262.12 0.15 261.82 0.2 261.72 0.2L261.72 0.2 261.67 0.2Q262.12-1 262.32-2.08 262.52-3.15 262.67-4.1L262.67-4.1 265.67-22Q266.77-29.05 268.45-33.45 270.12-37.85 272.72-40.3L272.72-40.3Q274.17-41.65 275.42-42.15 276.67-42.65 278.92-43.05L278.92-43.05Q279.62-43.2 280.2-43.4 280.77-43.6 280.97-43.6L280.97-43.6Q281.27-43.6 281.27-43.2L281.27-43.2Q281.27-42.5 280.32-41.75L280.32-41.75Q279.82-41.35 279.4-41.2 278.97-41.05 278.6-40.98 278.22-40.9 278.07-40.85L278.07-40.85Q276.52-40.65 275.55-40.1 274.57-39.55 273.57-38.15L273.57-38.15Q272.07-35.95 271.07-32.43 270.07-28.9 269.02-22.4L269.02-22.4 267.82-15 267.87-15Q269.72-18.35 272.4-21.08 275.07-23.8 277.02-23.8L277.02-23.8Q278.22-23.8 278.9-22.58 279.57-21.35 279.57-18.95L279.57-18.95Q279.57-13.85 277.62-9.35 275.67-4.85 272.57-2.18 269.47 0.5 266.17 0.5L266.17 0.5ZM268.82-2.5Q270.92-2.5 272.55-4.75 274.17-7 275.02-10.35 275.87-13.7 275.87-16.75L275.87-16.75Q275.87-18.4 275.62-19.05 275.37-19.7 274.72-19.7L274.72-19.7Q273.47-19.7 271.7-17.68 269.92-15.65 268.42-12.58 266.92-9.5 266.37-6.5L266.37-6.5 265.92-3.4Q267.22-2.5 268.82-2.5L268.82-2.5ZM297.57 0Q297.32 0 297.32-0.3L297.32-0.3Q297.32-0.75 297.69-1.43 298.07-2.1 298.52-2.4L298.52-2.4Q299.57-3.15 300.22-4.08 300.87-5 301.17-6.75L301.17-6.75 304.47-26.4Q304.67-27.65 306.09-28.9 307.52-30.15 308.67-30.15L308.67-30.15Q309.22-30.15 309.22-29.9L309.22-29.9Q309.22-29.75 308.72-29.05 308.22-28.35 307.97-26.7L307.97-26.7 304.57-6.1Q304.27-4.3 303.47-3.45L303.47-3.45 303.47-3.4Q304.92-3.05 307.82-3.05L307.82-3.05Q311.72-3.05 314.52-5.28 317.32-7.5 318.77-11.38 320.22-15.25 320.22-20.1L320.22-20.1Q320.22-26.4 317.67-29.45 315.12-32.5 309.72-32.5L309.72-32.5Q303.32-32.5 299.42-28.1L299.42-28.1Q299.27-27.9 298.99-27.6 298.72-27.3 298.57-27.18 298.42-27.05 298.27-27.05L298.27-27.05Q297.87-27.05 297.87-27.45L297.87-27.45Q297.87-27.8 298.22-28.6L298.22-28.6Q299.77-31.7 303.14-33.45 306.52-35.2 310.97-35.2L310.97-35.2Q317.52-35.2 320.99-31.38 324.47-27.55 324.47-20.6L324.47-20.6Q324.47-15.2 322.49-10.48 320.52-5.75 316.72-2.88 312.92 0 307.67 0L307.67 0Q306.02 0 303.52-0.4L303.52-0.4Q301.52-0.7 300.67-0.7L300.67-0.7Q299.52-0.7 298.67-0.35 297.82 0 297.57 0L297.57 0ZM332.46 0.5Q330.21 0.5 328.89-1.23 327.56-2.95 327.56-6L327.56-6Q327.56-9.7 329.34-13.93 331.11-18.15 333.91-20.98 336.71-23.8 339.56-23.8L339.56-23.8Q342.16-23.8 342.16-20.65L342.16-20.65Q342.16-18.1 340.66-15.65 339.16-13.2 336.64-11.33 334.11-9.45 331.11-8.45L331.11-8.45Q331.11-5.75 331.99-4.55 332.86-3.35 334.56-3.35L334.56-3.35Q336.36-3.35 337.86-4.5 339.36-5.65 340.41-7.65L340.41-7.65Q340.56-7.95 340.71-8.15 340.86-8.35 341.11-8.35L341.11-8.35Q341.51-8.35 341.51-7.75L341.51-7.75Q341.51-6.4 340.16-4.4 338.81-2.4 336.71-0.95 334.61 0.5 332.46 0.5L332.46 0.5ZM332.71-11.1Q334.01-11.1 335.49-12.03 336.96-12.95 337.96-14.55 338.96-16.15 338.96-18.15L338.96-18.15Q338.96-20.5 337.31-20.5L337.31-20.5Q335.96-20.5 334.74-19.05 333.51-17.6 332.69-15.45 331.86-13.3 331.56-11.3L331.56-11.3Q331.86-11.1 332.71-11.1L332.71-11.1ZM347.96 0.5Q346.41 0.5 345.31-0.35 344.21-1.2 343.86-2.6L343.86-2.6Q343.76-3 344.19-3.88 344.61-4.75 345.31-5.6L345.31-5.6Q345.71-6.05 345.96-6.05L345.96-6.05Q346.21-6.05 346.36-5.65L346.36-5.65Q347.86-2.15 350.51-2.15L350.51-2.15Q351.86-2.15 352.64-2.98 353.41-3.8 353.41-5.2L353.41-5.2Q353.41-7.1 351.26-10.1L351.26-10.1 350.21-11.6Q349.01-13.3 348.54-14.4 348.06-15.5 348.06-16.75L348.06-16.75Q348.06-18.75 349.14-20.35 350.21-21.95 351.96-22.88 353.71-23.8 355.61-23.8L355.61-23.8Q359.21-23.8 359.21-21.35L359.21-21.35Q359.21-20.45 358.56-19.55L358.56-19.55Q358.21-18.95 357.96-18.95L357.96-18.95Q357.66-18.95 357.41-19.55L357.41-19.55Q356.86-20.5 356.09-20.93 355.31-21.35 354.11-21.35L354.11-21.35Q352.71-21.35 351.86-20.6 351.01-19.85 351.01-18.7L351.01-18.7Q351.01-18.05 351.44-17.23 351.86-16.4 353.06-14.7L353.06-14.7 354.11-13.25Q355.51-11.4 356.06-10.08 356.61-8.75 356.61-7.3L356.61-7.3Q356.61-5.45 355.41-3.63 354.21-1.8 352.21-0.65 350.21 0.5 347.96 0.5L347.96 0.5ZM368.51-26.65Q368.01-26.65 368.06-27.15L368.06-27.15 368.66-30.65Q368.91-32.1 369.73-32.88 370.56-33.65 371.81-33.65L371.81-33.65 372.01-33.65Q372.31-33.65 372.38-33.55 372.46-33.45 372.41-33.15L372.41-33.15 371.86-29.7Q371.66-28.3 370.81-27.48 369.96-26.65 368.71-26.65L368.71-26.65 368.51-26.65ZM365.56 0.5Q363.96 0.5 363.96-1.8L363.96-1.8Q363.96-2.95 364.26-4.45L364.26-4.45 366.66-17.8Q366.86-19.1 366.86-19.4L366.86-19.4Q366.86-20.15 366.41-20.15L366.41-20.15Q365.81-20.15 364.96-19.2 364.11-18.25 363.11-16.2L363.11-16.2Q362.91-15.6 362.61-15.6L362.61-15.6Q362.31-15.6 362.31-16.1L362.31-16.1Q362.31-17.3 363.38-19.18 364.46-21.05 366.03-22.43 367.61-23.8 368.96-23.8L368.96-23.8Q370.51-23.8 370.51-21.6L370.51-21.6Q370.51-20.55 370.21-18.85L370.21-18.85 367.61-4.4 367.51-3.75Q367.51-3.2 367.96-3.2L367.96-3.2Q368.56-3.2 369.41-4.17 370.26-5.15 371.26-7.15L371.26-7.15Q371.51-7.7 371.76-7.7L371.76-7.7Q372.06-7.7 372.06-7.05L372.06-7.05Q372.06-5.9 370.98-4.08 369.91-2.25 368.36-0.88 366.81 0.5 365.56 0.5L365.56 0.5ZM374.51 19.95Q372.51 19.95 371.13 18.88 369.76 17.8 369.08 16.18 368.41 14.55 368.41 12.85L368.41 12.85Q368.41 11.2 368.98 10.23 369.56 9.25 370.28 8.85 371.01 8.45 371.41 8.45L371.41 8.45Q371.71 8.45 371.71 8.85L371.71 8.85Q371.71 12.8 372.91 14.78 374.11 16.75 376.91 16.75L376.91 16.75Q381.11 16.75 383.21 12.5L383.21 12.5Q384.06 10.75 384.68 7.83 385.31 4.9 386.41-1.9L386.41-1.9Q386.81-4.6 387.96-8.35L387.96-8.35 387.91-8.45Q385.26-4.15 382.73-1.83 380.21 0.5 378.31 0.5L378.31 0.5Q375.71 0.5 375.71-4.4L375.71-4.4Q375.71-8.95 377.71-13.48 379.71-18 383.13-20.9 386.56-23.8 390.51-23.8L390.51-23.8Q392.51-23.8 394.11-23L394.11-23 393.41-20.7Q391.96-15.35 391.26-11.78 390.56-8.2 390.11-4.75L390.11-4.75Q389.81-2.6 389.86-2.8L389.86-2.8Q389.21 2.35 388.68 5.03 388.16 7.7 387.31 9.68 386.46 11.65 384.86 13.65L384.86 13.65Q382.51 16.55 379.71 18.25 376.91 19.95 374.51 19.95L374.51 19.95ZM380.66-3.6Q382.21-3.6 384.13-6 386.06-8.4 387.58-11.8 389.11-15.2 389.56-17.75L389.56-17.75 389.86-19.7Q389.36-20.3 388.58-20.63 387.81-20.95 387.11-20.95L387.11-20.95Q384.91-20.95 383.13-18.48 381.36-16 380.36-12.48 379.36-8.95 379.36-6.1L379.36-6.1Q379.36-4.85 379.66-4.23 379.96-3.6 380.66-3.6L380.66-3.6ZM398.9 0.5Q398.45 0.5 398.45 0.2L398.45 0.2Q398.45 0 398.68-0.68 398.9-1.35 399.3-3L399.3-3Q400.3-7.15 401.7-16.85L401.7-16.85Q402-18.75 402-19.5L402-19.5Q402-20.15 401.7-20.15L401.7-20.15Q400.85-20.15 399.15-17.15L399.15-17.15Q398.9-16.7 398.7-16.38 398.5-16.05 398.38-15.9 398.25-15.75 398.1-15.75L398.1-15.75Q397.7-15.75 397.7-16.25L397.7-16.25Q397.7-17.25 398.8-19.1 399.9-20.95 401.4-22.38 402.9-23.8 404.1-23.8L404.1-23.8Q404.9-23.8 405.25-23.1 405.6-22.4 405.6-21.35L405.6-21.35Q405.6-19.7 404.8-14.9L404.8-14.9 404.85-14.9Q407.15-18.95 409.9-21.38 412.65-23.8 414.65-23.8L414.65-23.8Q416.75-23.8 416.75-20.85L416.75-20.85Q416.75-19.75 416.3-17.15L416.3-17.15 415.15-11.15Q413.9-4.8 413.9-3.95L413.9-3.95Q413.9-3.6 414.08-3.33 414.25-3.05 414.65-3.05L414.65-3.05Q416-3.05 417.75-7.15L417.75-7.15Q417.9-7.7 418.25-7.7L418.25-7.7Q418.55-7.7 418.55-7.1L418.55-7.1Q418.55-6.65 418.5-6.3L418.5-6.3Q418.15-4.5 417.05-2.93 415.95-1.35 414.6-0.43 413.25 0.5 412.15 0.5L412.15 0.5Q411.1 0.5 410.73-0.38 410.35-1.25 410.35-2.3L410.35-2.3Q410.35-4.55 411.6-10.4L411.6-10.4Q412.8-16.1 412.9-18.3L412.9-18.3Q412.95-19.2 412.78-19.58 412.6-19.95 411.95-19.95L411.95-19.95Q410.4-19.95 408.63-17.9 406.85-15.85 405.45-12.88 404.05-9.9 403.6-7.45L403.6-7.45 402.8-3.1Q402.5-1.8 401.2-0.65 399.9 0.5 398.9 0.5L398.9 0.5ZM438.85 0.5Q436.3 0.5 436.3-4.35L436.3-4.35Q436.3-9 438.32-13.53 440.35-18.05 443.8-20.93 447.25-23.8 451.25-23.8L451.25-23.8Q453.3-23.8 454.8-23.15L454.8-23.15Q454.15-20.6 453.9-19.4L453.9-19.4 452.85-14Q451.45-7.6 451.15-5.15L451.15-5.15Q451.1-4.8 451.1-4.3L451.1-4.3Q451.1-3.2 451.75-3.2L451.75-3.2Q452.55-3.2 453.25-4.23 453.95-5.25 454.85-7.15L454.85-7.15Q454.9-7.2 455.02-7.45 455.15-7.7 455.35-7.7L455.35-7.7Q455.65-7.7 455.65-7.1L455.65-7.1 455.55-6.3Q455.2-4.65 454.12-3.05 453.05-1.45 451.72-0.48 450.4 0.5 449.35 0.5L449.35 0.5Q447.6 0.5 447.6-2.35L447.6-2.35Q447.6-3.45 447.85-4.6L447.85-4.6 448.7-8.95 448.65-8.95Q446.25-4.75 443.52-2.13 440.8 0.5 438.85 0.5L438.85 0.5ZM441.2-3.6Q442.6-3.6 444.42-5.78 446.25-7.95 447.82-11.1 449.4-14.25 450-16.75L450-16.75 450.8-19.95Q449.3-20.95 447.65-20.95L447.65-20.95Q445.5-20.95 443.72-18.48 441.95-16 440.95-12.48 439.95-8.95 439.95-6.1L439.95-6.1Q439.95-4.85 440.22-4.23 440.5-3.6 441.2-3.6L441.2-3.6ZM460.25 0.5Q459.8 0.5 459.8 0.2L459.8 0.2Q459.8 0 460.02-0.68 460.25-1.35 460.65-3L460.65-3Q461.65-7.15 463.05-16.85L463.05-16.85Q463.35-18.75 463.35-19.5L463.35-19.5Q463.35-20.15 463.05-20.15L463.05-20.15Q462.2-20.15 460.5-17.15L460.5-17.15Q460.25-16.7 460.05-16.38 459.85-16.05 459.72-15.9 459.6-15.75 459.45-15.75L459.45-15.75Q459.05-15.75 459.05-16.25L459.05-16.25Q459.05-17.25 460.15-19.1 461.25-20.95 462.75-22.38 464.25-23.8 465.45-23.8L465.45-23.8Q466.25-23.8 466.6-23.1 466.95-22.4 466.95-21.35L466.95-21.35Q466.95-19.7 466.15-14.9L466.15-14.9 466.2-14.9Q468.5-18.95 471.25-21.38 474-23.8 476-23.8L476-23.8Q478.1-23.8 478.1-20.85L478.1-20.85Q478.1-19.75 477.65-17.15L477.65-17.15 476.5-11.15Q475.25-4.8 475.25-3.95L475.25-3.95Q475.25-3.6 475.42-3.33 475.6-3.05 476-3.05L476-3.05Q477.35-3.05 479.1-7.15L479.1-7.15Q479.25-7.7 479.6-7.7L479.6-7.7Q479.9-7.7 479.9-7.1L479.9-7.1Q479.9-6.65 479.85-6.3L479.85-6.3Q479.5-4.5 478.4-2.93 477.3-1.35 475.95-0.43 474.6 0.5 473.5 0.5L473.5 0.5Q472.45 0.5 472.07-0.38 471.7-1.25 471.7-2.3L471.7-2.3Q471.7-4.55 472.95-10.4L472.95-10.4Q474.15-16.1 474.25-18.3L474.25-18.3Q474.3-19.2 474.12-19.58 473.95-19.95 473.3-19.95L473.3-19.95Q471.75-19.95 469.97-17.9 468.2-15.85 466.8-12.88 465.4-9.9 464.95-7.45L464.95-7.45 464.15-3.1Q463.85-1.8 462.55-0.65 461.25 0.5 460.25 0.5L460.25 0.5ZM485.89 0.5Q483.34 0.5 483.34-4.4L483.34-4.4Q483.34-8.95 485.34-13.48 487.34-18 490.74-20.9 494.14-23.8 498.04-23.8L498.04-23.8 498.54-23.8Q500.19-30.7 501.64-34.2 503.09-37.7 505.49-40L505.49-40Q507.09-41.5 508.39-42.05 509.69-42.6 511.94-43.05L511.94-43.05Q512.94-43.25 513.37-43.43 513.79-43.6 513.94-43.6L513.94-43.6Q514.29-43.6 514.29-43.2L514.29-43.2Q514.29-42.55 513.34-41.75L513.34-41.75Q512.84-41.3 512.42-41.15 511.99-41 511.59-40.95 511.19-40.9 510.99-40.85L510.99-40.85Q508.39-40.5 506.59-38.25L506.59-38.25Q505.24-36.5 504.22-33.25 503.19-30 501.44-21.9L501.44-21.9Q498.54-7.9 498.19-5.15L498.19-5.15Q498.14-4.8 498.14-4.3L498.14-4.3Q498.14-3.2 498.79-3.2L498.79-3.2Q499.59-3.2 500.32-4.28 501.04-5.35 501.84-7.15L501.84-7.15Q502.14-7.7 502.39-7.7L502.39-7.7Q502.69-7.7 502.69-7.15L502.69-7.15 502.59-6.3Q502.19-4.55 501.12-2.98 500.04-1.4 498.72-0.45 497.39 0.5 496.29 0.5L496.29 0.5Q494.69 0.5 494.69-2.15L494.69-2.15Q494.69-3.15 494.89-4.55L494.89-4.55 495.74-8.95 495.69-8.95Q493.84-5.75 490.99-2.63 488.14 0.5 485.89 0.5L485.89 0.5ZM488.24-3.6Q489.64-3.6 491.47-5.78 493.29-7.95 494.87-11.1 496.44-14.25 497.04-16.75L497.04-16.75 497.84-19.95Q496.34-20.95 494.69-20.95L494.69-20.95Q492.54-20.95 490.77-18.48 488.99-16 487.99-12.48 486.99-8.95 486.99-6.1L486.99-6.1Q486.99-4.85 487.27-4.23 487.54-3.6 488.24-3.6L488.24-3.6ZM521.64 0Q521.39 0 521.39-0.3L521.39-0.3Q521.39-0.75 521.76-1.43 522.14-2.1 522.59-2.4L522.59-2.4Q523.64-3.15 524.29-4.08 524.94-5 525.24-6.75L525.24-6.75 528.54-26.4Q528.74-27.65 530.16-28.9 531.59-30.15 532.74-30.15L532.74-30.15Q533.29-30.15 533.29-29.9L533.29-29.9Q533.29-29.75 532.79-29.05 532.29-28.35 532.04-26.7L532.04-26.7 528.64-6.1Q528.34-4.3 527.54-3.45L527.54-3.45 527.54-3.4Q528.99-3.05 531.89-3.05L531.89-3.05Q535.79-3.05 538.59-5.28 541.39-7.5 542.84-11.38 544.29-15.25 544.29-20.1L544.29-20.1Q544.29-26.4 541.74-29.45 539.19-32.5 533.79-32.5L533.79-32.5Q527.39-32.5 523.49-28.1L523.49-28.1Q523.34-27.9 523.06-27.6 522.79-27.3 522.64-27.18 522.49-27.05 522.34-27.05L522.34-27.05Q521.94-27.05 521.94-27.45L521.94-27.45Q521.94-27.8 522.29-28.6L522.29-28.6Q523.84-31.7 527.21-33.45 530.59-35.2 535.04-35.2L535.04-35.2Q541.59-35.2 545.06-31.38 548.54-27.55 548.54-20.6L548.54-20.6Q548.54-15.2 546.56-10.48 544.59-5.75 540.79-2.88 536.99 0 531.74 0L531.74 0Q530.09 0 527.59-0.4L527.59-0.4Q525.59-0.7 524.74-0.7L524.74-0.7Q523.59-0.7 522.74-0.35 521.89 0 521.64 0L521.64 0ZM556.54 0.5Q554.29 0.5 552.96-1.23 551.64-2.95 551.64-6L551.64-6Q551.64-9.7 553.41-13.93 555.19-18.15 557.99-20.98 560.79-23.8 563.64-23.8L563.64-23.8Q566.24-23.8 566.24-20.65L566.24-20.65Q566.24-18.1 564.74-15.65 563.24-13.2 560.71-11.33 558.19-9.45 555.19-8.45L555.19-8.45Q555.19-5.75 556.06-4.55 556.94-3.35 558.64-3.35L558.64-3.35Q560.44-3.35 561.94-4.5 563.44-5.65 564.49-7.65L564.49-7.65Q564.64-7.95 564.79-8.15 564.94-8.35 565.19-8.35L565.19-8.35Q565.59-8.35 565.59-7.75L565.59-7.75Q565.59-6.4 564.24-4.4 562.89-2.4 560.79-0.95 558.69 0.5 556.54 0.5L556.54 0.5ZM556.79-11.1Q558.09-11.1 559.56-12.03 561.04-12.95 562.04-14.55 563.04-16.15 563.04-18.15L563.04-18.15Q563.04-20.5 561.39-20.5L561.39-20.5Q560.04-20.5 558.81-19.05 557.59-17.6 556.76-15.45 555.94-13.3 555.64-11.3L555.64-11.3Q555.94-11.1 556.79-11.1L556.79-11.1ZM575.88 0.5Q575.43 0.5 575.26 0.28 575.08 0.05 575.01-0.7 574.93-1.45 574.93-2.5L574.93-2.5Q574.93-6.05 574.58-10.6L574.58-10.6Q574.13-15.75 573.51-17.85 572.88-19.95 571.93-19.95L571.93-19.95Q571.28-19.95 570.98-19.35 570.68-18.75 570.18-17.15L570.18-17.15Q569.98-16.3 569.58-16.3L569.58-16.3Q569.18-16.3 569.18-17.05L569.18-17.05Q569.18-18.3 569.76-19.9 570.33-21.5 571.36-22.65 572.38-23.8 573.68-23.8L573.68-23.8Q575.98-23.8 576.91-20.55 577.83-17.3 578.23-12.05L578.23-12.05Q578.48-8.75 578.56-7.4 578.63-6.05 578.68-5.7L578.68-5.7Q578.73-4.85 579.13-4.85L579.13-4.85Q580.08-4.85 581.58-6.98 583.08-9.1 584.21-11.93 585.33-14.75 585.33-16.75L585.33-16.75Q585.33-17.65 585.11-18.2 584.88-18.75 584.48-19.3 584.08-19.85 584.08-20.15L584.08-20.15Q584.08-20.9 585.28-22.35 586.48-23.8 587.13-23.8L587.13-23.8Q587.63-23.8 588.08-22.93 588.53-22.05 588.53-20.6L588.53-20.6Q588.53-17.3 586.28-12.23 584.03-7.15 581.03-3.33 578.03 0.5 575.88 0.5L575.88 0.5ZM595.33 0.5Q593.08 0.5 591.75-1.23 590.43-2.95 590.43-6L590.43-6Q590.43-9.7 592.2-13.93 593.98-18.15 596.78-20.98 599.58-23.8 602.43-23.8L602.43-23.8Q605.03-23.8 605.03-20.65L605.03-20.65Q605.03-18.1 603.53-15.65 602.03-13.2 599.5-11.33 596.98-9.45 593.98-8.45L593.98-8.45Q593.98-5.75 594.85-4.55 595.73-3.35 597.43-3.35L597.43-3.35Q599.23-3.35 600.73-4.5 602.23-5.65 603.28-7.65L603.28-7.65Q603.43-7.95 603.58-8.15 603.73-8.35 603.98-8.35L603.98-8.35Q604.38-8.35 604.38-7.75L604.38-7.75Q604.38-6.4 603.03-4.4 601.68-2.4 599.58-0.95 597.48 0.5 595.33 0.5L595.33 0.5ZM595.58-11.1Q596.88-11.1 598.35-12.03 599.83-12.95 600.83-14.55 601.83-16.15 601.83-18.15L601.83-18.15Q601.83-20.5 600.18-20.5L600.18-20.5Q598.83-20.5 597.6-19.05 596.38-17.6 595.55-15.45 594.73-13.3 594.43-11.3L594.43-11.3Q594.73-11.1 595.58-11.1L595.58-11.1ZM610.03 0.5Q609.08 0.5 608.65-0.43 608.23-1.35 608.23-2.75L608.23-2.75Q608.23-3.7 608.43-5L608.43-5 611.38-24.7Q612.43-31.5 613.93-35.2 615.43-38.9 617.53-40.55L617.53-40.55Q618.73-41.5 620.03-41.95 621.33-42.4 624.03-43.05L624.03-43.05Q625.28-43.3 625.63-43.45 625.98-43.6 626.08-43.6L626.08-43.6Q626.43-43.6 626.43-43.2L626.43-43.2Q626.43-43 626.2-42.6 625.98-42.2 625.48-41.75L625.48-41.75Q624.93-41.25 624.43-41.08 623.93-40.9 623.23-40.85L623.23-40.85Q620.33-40.55 619.03-39.05L619.03-39.05Q616.58-36.25 615.43-28.7L615.43-28.7 611.78-5.15Q611.73-4.8 611.73-4.3L611.73-4.3Q611.73-3.2 612.38-3.2L612.38-3.2Q613.88-3.2 615.88-7.65L615.88-7.65Q616.08-8.2 616.43-8.2L616.43-8.2Q616.78-8.2 616.78-7.5L616.78-7.5Q616.78-5.85 615.6-3.95 614.43-2.05 612.83-0.78 611.23 0.5 610.03 0.5L610.03 0.5ZM624.42 0.5Q622.32 0.5 621.25-1.13 620.17-2.75 620.17-5.65L620.17-5.65Q620.17-9.7 622.12-13.95 624.07-18.2 626.95-21 629.82-23.8 632.42-23.8L632.42-23.8Q634.37-23.8 635.42-22.08 636.47-20.35 636.47-17.55L636.47-17.55Q636.47-13.8 634.65-9.55 632.82-5.3 630.02-2.4 627.22 0.5 624.42 0.5L624.42 0.5ZM626.87-2.8Q628.52-2.8 629.87-4.48 631.22-6.15 632.02-8.93 632.82-11.7 632.82-14.8L632.82-14.8Q632.82-20.5 629.87-20.5L629.87-20.5Q628.02-20.5 626.65-18.5 625.27-16.5 624.55-13.63 623.82-10.75 623.82-8.25L623.82-8.25Q623.82-5.85 624.55-4.33 625.27-2.8 626.87-2.8L626.87-2.8ZM631.57 19.95Q628.87 19.95 626.72 18.53 624.57 17.1 623.72 14.55L623.72 14.55Q623.62 14.15 623.62 13.9L623.62 13.9Q623.62 12.95 624.3 12.08 624.97 11.2 625.82 10.85L625.82 10.85 626.22 10.75Q626.42 10.75 626.47 11 626.52 11.25 626.52 11.3L626.52 11.3Q626.92 14.45 628.55 16.1 630.17 17.75 632.87 17.75L632.87 17.75Q635.97 17.75 637.87 14.83 639.77 11.9 640.72 5.65L640.72 5.65 644.22-16.85Q644.52-18.65 644.52-19.4L644.52-19.4Q644.52-20.15 644.12-20.15L644.12-20.15Q643.67-20.15 642.97-19.4 642.27-18.65 641.67-17.65L641.67-17.65Q641.47-17.35 641.22-16.93 640.97-16.5 640.82-16.38 640.67-16.25 640.52-16.25L640.52-16.25Q640.22-16.25 640.22-16.8L640.22-16.8Q640.22-17.7 641.32-19.43 642.42-21.15 643.9-22.48 645.37-23.8 646.47-23.8L646.47-23.8Q647.37-23.8 647.8-23.13 648.22-22.45 648.12-21.35L648.12-21.35Q647.97-19.85 647.47-16.85L647.47-16.85Q647.17-15.15 647.07-14.5L647.07-14.5 647.12-14.5Q649.07-18.05 651.8-20.93 654.52-23.8 656.52-23.8L656.52-23.8Q657.97-23.8 658.52-22.35 659.07-20.9 659.07-17.75L659.07-17.75Q659.07-13.45 657.12-9.18 655.17-4.9 652.1-2.2 649.02 0.5 645.77 0.5L645.77 0.5Q645.32 0.5 644.92 0.35L644.92 0.35 644.07 5.35Q643.32 9.65 641.55 12.98 639.77 16.3 637.2 18.13 634.62 19.95 631.57 19.95L631.57 19.95ZM648.67-2.5Q650.57-2.5 652.12-4.78 653.67-7.05 654.55-10.38 655.42-13.7 655.42-16.6L655.42-16.6Q655.42-18.25 655.17-18.98 654.92-19.7 654.37-19.7L654.37-19.7Q653.02-19.7 651.17-17.6 649.32-15.5 647.82-12.4 646.32-9.3 645.92-6.5L645.92-6.5 645.42-3.4Q646.22-2.9 646.97-2.7 647.72-2.5 648.67-2.5L648.67-2.5ZM663.97 0.5Q663.52 0.5 663.52 0.2L663.52 0.2Q663.52 0.05 663.74-0.53 663.97-1.1 664.37-3L664.37-3Q664.92-5.35 665.39-8.05 665.87-10.75 666.77-16.85L666.77-16.85Q667.07-18.75 667.07-19.5L667.07-19.5Q667.07-20.15 666.77-20.15L666.77-20.15Q666.27-20.15 665.67-19.35 665.07-18.55 664.22-17.15L664.22-17.15Q663.97-16.7 663.77-16.38 663.57-16.05 663.44-15.9 663.32-15.75 663.17-15.75L663.17-15.75Q662.77-15.75 662.77-16.3L662.77-16.3Q662.77-17.3 663.87-19.13 664.97-20.95 666.47-22.38 667.97-23.8 669.17-23.8L669.17-23.8Q669.97-23.8 670.32-23.08 670.67-22.35 670.67-21.25L670.67-21.25Q670.67-20.2 670.17-16.8L670.17-16.8 669.92-15.05 669.97-15.05Q672.42-19.4 674.74-21.6 677.07-23.8 679.17-23.8L679.17-23.8Q680.17-23.8 680.62-23.18 681.07-22.55 681.07-21.1L681.07-21.1Q681.07-19.7 680.62-17.15L680.62-17.15 680.37-15.75 680.47-15.75Q682.72-19.7 684.99-21.75 687.27-23.8 689.07-23.8L689.07-23.8Q691.17-23.8 691.17-20.8L691.17-20.8Q691.17-19.75 690.72-17.15L690.72-17.15 689.57-11.15Q688.32-4.8 688.32-3.95L688.32-3.95Q688.32-3.05 689.07-3.05L689.07-3.05Q689.92-3.05 690.62-4.17 691.32-5.3 692.12-7.15L692.12-7.15Q692.32-7.7 692.62-7.7L692.62-7.7Q692.92-7.7 692.92-7.1L692.92-7.1Q692.92-6.65 692.87-6.3L692.87-6.3Q692.52-4.5 691.44-2.93 690.37-1.35 689.02-0.43 687.67 0.5 686.57 0.5L686.57 0.5Q684.77 0.5 684.77-2.2L684.77-2.2Q684.77-4.25 686.02-10.2L686.02-10.2Q686.17-10.95 686.69-13.7 687.22-16.45 687.32-18.3L687.32-18.3Q687.32-19.15 687.17-19.55 687.02-19.95 686.42-19.95L686.42-19.95Q685.27-19.95 683.84-18.3 682.42-16.65 681.17-14.15 679.92-11.65 679.27-9.25L679.27-9.25 677.72-1.3Q677.67-0.7 676.59-0.1 675.52 0.5 674.87 0.5L674.87 0.5Q674.17 0.5 674.17-0.1L674.17-0.1Q674.62-2.05 675.82-8.63 677.02-15.2 677.22-18.3L677.22-18.3 677.22-18.8Q677.22-19.35 677.07-19.65 676.92-19.95 676.42-19.95L676.42-19.95Q675.07-19.95 673.39-17.88 671.72-15.8 670.39-12.83 669.07-9.85 668.67-7.45L668.67-7.45 667.87-3.1Q667.57-1.8 666.27-0.65 664.97 0.5 663.97 0.5L663.97 0.5ZM701.27 0.5Q699.02 0.5 697.69-1.23 696.37-2.95 696.37-6L696.37-6Q696.37-9.7 698.14-13.93 699.92-18.15 702.72-20.98 705.52-23.8 708.37-23.8L708.37-23.8Q710.97-23.8 710.97-20.65L710.97-20.65Q710.97-18.1 709.47-15.65 707.97-13.2 705.44-11.33 702.92-9.45 699.92-8.45L699.92-8.45Q699.92-5.75 700.79-4.55 701.67-3.35 703.37-3.35L703.37-3.35Q705.17-3.35 706.67-4.5 708.17-5.65 709.22-7.65L709.22-7.65Q709.37-7.95 709.52-8.15 709.67-8.35 709.92-8.35L709.92-8.35Q710.32-8.35 710.32-7.75L710.32-7.75Q710.32-6.4 708.97-4.4 707.62-2.4 705.52-0.95 703.42 0.5 701.27 0.5L701.27 0.5ZM701.52-11.1Q702.82-11.1 704.29-12.03 705.77-12.95 706.77-14.55 707.77-16.15 707.77-18.15L707.77-18.15Q707.77-20.5 706.12-20.5L706.12-20.5Q704.77-20.5 703.54-19.05 702.32-17.6 701.49-15.45 700.67-13.3 700.37-11.3L700.37-11.3Q700.67-11.1 701.52-11.1L701.52-11.1ZM715.61 0.5Q715.16 0.5 715.16 0.2L715.16 0.2Q715.16 0 715.39-0.68 715.61-1.35 716.01-3L716.01-3Q717.01-7.15 718.41-16.85L718.41-16.85Q718.71-18.75 718.71-19.5L718.71-19.5Q718.71-20.15 718.41-20.15L718.41-20.15Q717.56-20.15 715.86-17.15L715.86-17.15Q715.61-16.7 715.41-16.38 715.21-16.05 715.09-15.9 714.96-15.75 714.81-15.75L714.81-15.75Q714.41-15.75 714.41-16.25L714.41-16.25Q714.41-17.25 715.51-19.1 716.61-20.95 718.11-22.38 719.61-23.8 720.81-23.8L720.81-23.8Q721.61-23.8 721.96-23.1 722.31-22.4 722.31-21.35L722.31-21.35Q722.31-19.7 721.51-14.9L721.51-14.9 721.56-14.9Q723.86-18.95 726.61-21.38 729.36-23.8 731.36-23.8L731.36-23.8Q733.46-23.8 733.46-20.85L733.46-20.85Q733.46-19.75 733.01-17.15L733.01-17.15 731.86-11.15Q730.61-4.8 730.61-3.95L730.61-3.95Q730.61-3.6 730.79-3.33 730.96-3.05 731.36-3.05L731.36-3.05Q732.71-3.05 734.46-7.15L734.46-7.15Q734.61-7.7 734.96-7.7L734.96-7.7Q735.26-7.7 735.26-7.1L735.26-7.1Q735.26-6.65 735.21-6.3L735.21-6.3Q734.86-4.5 733.76-2.93 732.66-1.35 731.31-0.43 729.96 0.5 728.86 0.5L728.86 0.5Q727.81 0.5 727.44-0.38 727.06-1.25 727.06-2.3L727.06-2.3Q727.06-4.55 728.31-10.4L728.31-10.4Q729.51-16.1 729.61-18.3L729.61-18.3Q729.66-19.2 729.49-19.58 729.31-19.95 728.66-19.95L728.66-19.95Q727.11-19.95 725.34-17.9 723.56-15.85 722.16-12.88 720.76-9.9 720.31-7.45L720.31-7.45 719.51-3.1Q719.21-1.8 717.91-0.65 716.61 0.5 715.61 0.5L715.61 0.5ZM743.41 0.5Q741.91 0.5 741.31-0.53 740.71-1.55 740.71-3.3L740.71-3.3Q740.71-4.6 740.94-6.08 741.16-7.55 741.21-7.85L741.21-7.85 743.26-20.7 738.21-20.7Q737.96-20.7 737.96-20.95L737.96-20.95Q737.96-21.45 739.06-22.38 740.16-23.3 740.66-23.3L740.66-23.3 743.66-23.3 744.16-26.4Q744.36-28.05 745.71-29.35 747.06-30.65 748.41-30.65L748.41-30.65Q748.66-30.65 748.66-30.4L748.66-30.4Q748.66-30.2 748.21-29.23 747.76-28.25 747.56-27.15L747.56-27.15 746.96-23.3 751.86-23.3Q752.16-23.3 752.16-23L752.16-23Q752.16-22.6 750.99-21.65 749.81-20.7 749.46-20.7L749.46-20.7 746.66-20.7 744.61-7.95Q744.56-7.6 744.34-6.25 744.11-4.9 744.11-4.15L744.11-4.15Q744.11-2.5 745.21-2.5L745.21-2.5Q746.01-2.5 746.91-3.28 747.81-4.05 748.51-5.45L748.51-5.45Q748.56-5.55 748.64-5.65 748.71-5.75 748.81-5.75L748.81-5.75Q749.06-5.75 749.06-5.1L749.06-5.1Q749.06-4.1 748.19-2.75 747.31-1.4 745.99-0.45 744.66 0.5 743.41 0.5L743.41 0.5Z" opacity="1" transform="matrix(1,0,0,1,0,0)" fill="#d2d6dc" class="slogan-text-1" data-fill-palette-color="secondary" id="text-1"></path></svg></g></svg></g></svg></g></svg></g><g transform="matrix(1,0,0,1,134.1933269391282,0)"><svg viewBox="0 0 129.1109461217435 154.94203220826603" height="154.94203220826603" width="129.1109461217435"><g><svg xmlns="http://www.w3.org/2000/svg" xmlns:xlink="http://www.w3.org/1999/xlink" version="1.1" x="0" y="0" viewBox="8.63 1.356 81.26700000000001 97.52600000000001" enable-background="new 0 0 100 100" xml:space="preserve" height="154.94203220826603" width="129.1109461217435" class="icon-icon-0" data-fill-palette-color="accent" id="icon-0"><g fill="#d2d6dc" data-fill-palette-color="accent"><path d="M81.774 9.483L77.71 1.356H49.265l0 0H20.819l-4.064 8.127L8.63 13.547v8.127h40.622l0 0h40.645v-8.127L81.774 9.483zM55.36 13.547H43.169c-1.132 0-2.033-0.911-2.033-2.031 0-1.127 0.901-2.033 2.033-2.033H55.36c1.119 0 2.032 0.906 2.032 2.033C57.393 12.636 56.479 13.547 55.36 13.547z" fill="#d2d6dc" data-fill-palette-color="accent"></path></g><path d="M80.273 39.176l1.501-13.438H16.743l1.387 12.443h-0.049l2.524 21.626 1.558 14.693 2.708 24.382h48.773l0 0 2.576-24.382 4.089-35.325H80.273zM70.783 71.633H27.758l-3.245-26.716h49.36L70.783 71.633z" fill="#d2d6dc" data-fill-palette-color="accent"></path></svg></g></svg></g><g></g></svg></g><defs></defs></svg><rect width="318.38140927993066" height="247.2" fill="none" stroke="none" visibility="hidden"></rect></g></svg></g></svg>